<svg xmlns="http://www.w3.org/2000/svg" xmlns:xlink="http://www.w3.org/1999/xlink" contentStyleType="text/css" height="983px" preserveAspectRatio="none" style="width:2141px;height:983px;background:#FFFFFF;" version="1.1" viewBox="0 0 2141 983" width="2141px" zoomAndPan="magnify"><defs/><g><!--cluster 47e71c0025dfa8a276a9e0dc8408303e--><g id="cluster_47e71c0025dfa8a276a9e0dc8408303e"><polygon fill="none" points="1229,97,1239,87,1421,87,1421,766.76,1411,776.76,1229,776.76,1229,97" style="stroke:#181818;stroke-width:1.0;"/><line style="stroke:#181818;stroke-width:1.0;" x1="1411" x2="1421" y1="97" y2="87"/><line style="stroke:#181818;stroke-width:1.0;" x1="1229" x2="1411" y1="97" y2="97"/><line style="stroke:#181818;stroke-width:1.0;" x1="1411" x2="1411" y1="97" y2="776.76"/><text fill="#000000" font-family="sans-serif" font-size="14" font-weight="bold" lengthAdjust="spacing" textLength="84" x="1279" y="112.9951">Service-py</text></g><!--cluster 114eee47bbafd307e73fd43fa6b8761c--><g id="cluster_114eee47bbafd307e73fd43fa6b8761c"><path d="M8.5,6 L69.5,6 A3.75,3.75 0 0 1 72,8.5 L79,28.2969 L1202.5,28.2969 A2.5,2.5 0 0 1 1205,30.7969 L1205,973.95 A2.5,2.5 0 0 1 1202.5,976.45 L8.5,976.45 A2.5,2.5 0 0 1 6,973.95 L6,8.5 A2.5,2.5 0 0 1 8.5,6 " fill="none" style="stroke:#000000;stroke-width:1.5;"/><line style="stroke:#000000;stroke-width:1.5;" x1="6" x2="79" y1="28.2969" y2="28.2969"/><text fill="#000000" font-family="sans-serif" font-size="14" font-weight="bold" lengthAdjust="spacing" textLength="60" x="10" y="20.9951">theapp/</text></g><!--cluster e31d3623e405e5a32d0e66af49607bfc--><g id="cluster_e31d3623e405e5a32d0e66af49607bfc"><path d="M32.5,49 L85.5,49 A3.75,3.75 0 0 1 88,51.5 L95,71.2969 L421.5,71.2969 A2.5,2.5 0 0 1 424,73.7969 L424,631.17 A2.5,2.5 0 0 1 421.5,633.67 L32.5,633.67 A2.5,2.5 0 0 1 30,631.17 L30,51.5 A2.5,2.5 0 0 1 32.5,49 " fill="none" style="stroke:#000000;stroke-width:1.5;"/><line style="stroke:#000000;stroke-width:1.5;" x1="30" x2="95" y1="71.2969" y2="71.2969"/><text fill="#000000" font-family="sans-serif" font-size="14" font-weight="bold" lengthAdjust="spacing" textLength="52" x="34" y="63.9951">admin/</text></g><!--cluster b007652d130f4587b8c312c5091eca93--><g id="cluster_b007652d130f4587b8c312c5091eca93"><path d="M56.5,92 L129.5,92 A3.75,3.75 0 0 1 132,94.5 L139,114.2969 L397.5,114.2969 A2.5,2.5 0 0 1 400,116.7969 L400,607.17 A2.5,2.5 0 0 1 397.5,609.67 L56.5,609.67 A2.5,2.5 0 0 1 54,607.17 L54,94.5 A2.5,2.5 0 0 1 56.5,92 " fill="none" style="stroke:#000000;stroke-width:1.5;"/><line style="stroke:#000000;stroke-width:1.5;" x1="54" x2="139" y1="114.2969" y2="114.2969"/><text fill="#000000" font-family="sans-serif" font-size="14" font-weight="bold" lengthAdjust="spacing" textLength="72" x="58" y="106.9951">sections/</text></g><!--cluster 079b6d7c14a935efe474aa45f6d4e76f--><g id="cluster_079b6d7c14a935efe474aa45f6d4e76f"><path d="M354.5,666.67 L417.5,666.67 A3.75,3.75 0 0 1 420,669.17 L427,688.9669 L630.5,688.9669 A2.5,2.5 0 0 1 633,691.4669 L633,949.95 A2.5,2.5 0 0 1 630.5,952.45 L354.5,952.45 A2.5,2.5 0 0 1 352,949.95 L352,669.17 A2.5,2.5 0 0 1 354.5,666.67 " fill="none" style="stroke:#000000;stroke-width:1.5;"/><line style="stroke:#000000;stroke-width:1.5;" x1="352" x2="427" y1="688.9669" y2="688.9669"/><text fill="#000000" font-family="sans-serif" font-size="14" font-weight="bold" lengthAdjust="spacing" textLength="62" x="356" y="681.6651">models/</text></g><!--cluster d07fef97829b7397462b73aebb836746--><g id="cluster_d07fef97829b7397462b73aebb836746"><path d="M1460.5,49 L1539.5,49 A3.75,3.75 0 0 1 1542,51.5 L1549,71.2969 L1796.5,71.2969 A2.5,2.5 0 0 1 1799,73.7969 L1799,385.28 A2.5,2.5 0 0 1 1796.5,387.78 L1460.5,387.78 A2.5,2.5 0 0 1 1458,385.28 L1458,51.5 A2.5,2.5 0 0 1 1460.5,49 " fill="none" style="stroke:#000000;stroke-width:1.5;"/><line style="stroke:#000000;stroke-width:1.5;" x1="1458" x2="1549" y1="71.2969" y2="71.2969"/><text fill="#000000" font-family="sans-serif" font-size="14" font-weight="bold" lengthAdjust="spacing" textLength="78" x="1462" y="63.9951">learnlang/</text></g><!--cluster 0eacfed09714756f77bb957689f22bb3--><g id="cluster_0eacfed09714756f77bb957689f22bb3"><path d="M1484.5,92 L1539.5,92 A3.75,3.75 0 0 1 1542,94.5 L1549,114.2969 L1691.5,114.2969 A2.5,2.5 0 0 1 1694,116.7969 L1694,361.28 A2.5,2.5 0 0 1 1691.5,363.78 L1484.5,363.78 A2.5,2.5 0 0 1 1482,361.28 L1482,94.5 A2.5,2.5 0 0 1 1484.5,92 " fill="none" style="stroke:#000000;stroke-width:1.5;"/><line style="stroke:#000000;stroke-width:1.5;" x1="1482" x2="1549" y1="114.2969" y2="114.2969"/><text fill="#000000" font-family="sans-serif" font-size="14" font-weight="bold" lengthAdjust="spacing" textLength="54" x="1486" y="106.9951">config/</text></g><!--cluster 332ab7c602da1508956e35208406b09d--><g id="cluster_332ab7c602da1508956e35208406b09d"><path d="M1825.5,92 L1854.5,92 A3.75,3.75 0 0 1 1857,94.5 L1864,114.2969 L2131.5,114.2969 A2.5,2.5 0 0 1 2134,116.7969 L2134,219.39 A2.5,2.5 0 0 1 2131.5,221.89 L1825.5,221.89 A2.5,2.5 0 0 1 1823,219.39 L1823,94.5 A2.5,2.5 0 0 1 1825.5,92 " fill="none" style="stroke:#000000;stroke-width:1.5;"/><line style="stroke:#000000;stroke-width:1.5;" x1="1823" x2="1864" y1="114.2969" y2="114.2969"/><text fill="#000000" font-family="sans-serif" font-size="14" font-weight="bold" lengthAdjust="spacing" textLength="28" x="1827" y="106.9951">api/</text></g><!--cluster af737da36f35fc8f7255a5098195bc85--><g id="cluster_af737da36f35fc8f7255a5098195bc85"><path d="M1447.5,436.78 L1509.5,436.78 A3.75,3.75 0 0 1 1512,439.28 L1519,459.0769 L1760.5,459.0769 A2.5,2.5 0 0 1 1763,461.5769 L1763,631.17 A2.5,2.5 0 0 1 1760.5,633.67 L1447.5,633.67 A2.5,2.5 0 0 1 1445,631.17 L1445,439.28 A2.5,2.5 0 0 1 1447.5,436.78 " fill="none" style="stroke:#000000;stroke-width:1.5;"/><line style="stroke:#000000;stroke-width:1.5;" x1="1445" x2="1519" y1="459.0769" y2="459.0769"/><text fill="#000000" font-family="sans-serif" font-size="14" font-weight="bold" lengthAdjust="spacing" textLength="61" x="1449" y="451.7751">vendor/</text></g><!--cluster 6831c802420327a27b70ba9388504594--><g id="cluster_6831c802420327a27b70ba9388504594"><path d="M1471.5,479.78 L1589.5,479.78 A3.75,3.75 0 0 1 1592,482.28 L1599,502.0769 L1736.5,502.0769 A2.5,2.5 0 0 1 1739,504.5769 L1739,607.17 A2.5,2.5 0 0 1 1736.5,609.67 L1471.5,609.67 A2.5,2.5 0 0 1 1469,607.17 L1469,482.28 A2.5,2.5 0 0 1 1471.5,479.78 " fill="none" style="stroke:#000000;stroke-width:1.5;"/><line style="stroke:#000000;stroke-width:1.5;" x1="1469" x2="1599" y1="502.0769" y2="502.0769"/><text fill="#000000" font-family="sans-serif" font-size="14" font-weight="bold" lengthAdjust="spacing" textLength="117" x="1473" y="494.7751">theframework/</text></g><!--entity a9160ac1370db82cff6e63bcab0b7947--><g id="elem_a9160ac1370db82cff6e63bcab0b7947"><rect fill="#F1F1F1" height="78.8906" rx="2.5" ry="2.5" style="stroke:#181818;stroke-width:0.5;" width="161" x="1244.5" y="127"/><rect fill="#F1F1F1" height="10" style="stroke:#181818;stroke-width:0.5;" width="15" x="1385.5" y="132"/><rect fill="#F1F1F1" height="2" style="stroke:#181818;stroke-width:0.5;" width="4" x="1383.5" y="134"/><rect fill="#F1F1F1" height="2" style="stroke:#181818;stroke-width:0.5;" width="4" x="1383.5" y="138"/><text fill="#000000" font-family="sans-serif" font-size="14" font-weight="bold" lengthAdjust="spacing" textLength="121" x="1259.5" y="159.9951">cont-python-3x</text><text fill="#000000" font-family="sans-serif" font-size="14" lengthAdjust="spacing" textLength="4" x="1259.5" y="176.292">&#160;</text><text fill="#000000" font-family="sans-serif" font-size="14" lengthAdjust="spacing" textLength="4" x="1259.5" y="192.5889">&#160;</text></g><!--entity f4f0aa7635066259af1dbfa333c618ab--><g id="elem_f4f0aa7635066259af1dbfa333c618ab"><rect fill="#F1F1F1" height="39.2969" rx="2.5" ry="2.5" style="stroke:#181818;stroke-width:0.5;" width="107" x="1271.5" y="721.47"/><polygon fill="#F1F1F1" points="1361.5,726.47,1361.5,740.47,1373.5,740.47,1373.5,732.47,1367.5,726.47,1361.5,726.47" style="stroke:#181818;stroke-width:0.5;"/><line style="stroke:#181818;stroke-width:0.5;" x1="1367.5" x2="1367.5" y1="726.47" y2="732.47"/><line style="stroke:#181818;stroke-width:0.5;" x1="1373.5" x2="1367.5" y1="732.47" y2="732.47"/><text fill="#000000" font-family="sans-serif" font-size="14" lengthAdjust="spacing" textLength="77" x="1281.5" y="747.4651">/lh_monitor</text></g><!--entity e1a68c45777c413457f0129c53d01a4c--><g id="elem_e1a68c45777c413457f0129c53d01a4c"><rect fill="#F1F1F1" height="78.8906" rx="2.5" ry="2.5" style="stroke:#181818;stroke-width:0.5;" width="70" x="1119" y="127"/><rect fill="#F1F1F1" height="10" style="stroke:#181818;stroke-width:0.5;" width="15" x="1169" y="132"/><rect fill="#F1F1F1" height="2" style="stroke:#181818;stroke-width:0.5;" width="4" x="1167" y="134"/><rect fill="#F1F1F1" height="2" style="stroke:#181818;stroke-width:0.5;" width="4" x="1167" y="138"/><text fill="#000000" font-family="sans-serif" font-size="14" font-weight="bold" lengthAdjust="spacing" textLength="30" x="1134" y="159.9951">urls</text><text fill="#000000" font-family="sans-serif" font-size="14" lengthAdjust="spacing" textLength="4" x="1134" y="176.292">&#160;</text><text fill="#000000" font-family="sans-serif" font-size="14" lengthAdjust="spacing" textLength="4" x="1134" y="192.5889">&#160;</text></g><!--entity 3b276b4bf227aa506e1f476a69681af2--><g id="elem_3b276b4bf227aa506e1f476a69681af2"><rect fill="#F1F1F1" height="78.8906" rx="2.5" ry="2.5" style="stroke:#181818;stroke-width:0.5;" width="201" x="440.5" y="127"/><rect fill="#F1F1F1" height="10" style="stroke:#181818;stroke-width:0.5;" width="15" x="621.5" y="132"/><rect fill="#F1F1F1" height="2" style="stroke:#181818;stroke-width:0.5;" width="4" x="619.5" y="134"/><rect fill="#F1F1F1" height="2" style="stroke:#181818;stroke-width:0.5;" width="4" x="619.5" y="138"/><text fill="#000000" font-family="sans-serif" font-size="14" font-weight="bold" lengthAdjust="spacing" textLength="161" x="455.5" y="159.9951">tests/test_managers</text><text fill="#000000" font-family="sans-serif" font-size="14" lengthAdjust="spacing" textLength="4" x="455.5" y="176.292">&#160;</text><text fill="#000000" font-family="sans-serif" font-size="14" lengthAdjust="spacing" textLength="4" x="455.5" y="192.5889">&#160;</text></g><!--entity 8ab2a1f0bb811a429f8e6940184838d7--><g id="elem_8ab2a1f0bb811a429f8e6940184838d7"><rect fill="#F1F1F1" height="78.8906" rx="2.5" ry="2.5" style="stroke:#181818;stroke-width:0.5;" width="192" x="677" y="127"/><rect fill="#F1F1F1" height="10" style="stroke:#181818;stroke-width:0.5;" width="15" x="849" y="132"/><rect fill="#F1F1F1" height="2" style="stroke:#181818;stroke-width:0.5;" width="4" x="847" y="134"/><rect fill="#F1F1F1" height="2" style="stroke:#181818;stroke-width:0.5;" width="4" x="847" y="138"/><text fill="#000000" font-family="sans-serif" font-size="14" font-weight="bold" lengthAdjust="spacing" textLength="152" x="692" y="159.9951">tests/test_datetime</text><text fill="#000000" font-family="sans-serif" font-size="14" lengthAdjust="spacing" textLength="4" x="692" y="176.292">&#160;</text><text fill="#000000" font-family="sans-serif" font-size="14" lengthAdjust="spacing" textLength="4" x="692" y="192.5889">&#160;</text></g><!--entity f95959b8b5644bf85d6d3a1edef4d0e0--><g id="elem_f95959b8b5644bf85d6d3a1edef4d0e0"><rect fill="#F1F1F1" height="78.8906" rx="2.5" ry="2.5" style="stroke:#181818;stroke-width:0.5;" width="180" x="904" y="127"/><rect fill="#F1F1F1" height="10" style="stroke:#181818;stroke-width:0.5;" width="15" x="1064" y="132"/><rect fill="#F1F1F1" height="2" style="stroke:#181818;stroke-width:0.5;" width="4" x="1062" y="134"/><rect fill="#F1F1F1" height="2" style="stroke:#181818;stroke-width:0.5;" width="4" x="1062" y="138"/><text fill="#000000" font-family="sans-serif" font-size="14" font-weight="bold" lengthAdjust="spacing" textLength="140" x="919" y="159.9951">tests/test_models</text><text fill="#000000" font-family="sans-serif" font-size="14" lengthAdjust="spacing" textLength="4" x="919" y="176.292">&#160;</text><text fill="#000000" font-family="sans-serif" font-size="14" lengthAdjust="spacing" textLength="4" x="919" y="192.5889">&#160;</text></g><!--entity 4e7f328df446cc5996ac60849faebabc--><g id="elem_4e7f328df446cc5996ac60849faebabc"><rect fill="#F1F1F1" height="78.8906" rx="2.5" ry="2.5" style="stroke:#181818;stroke-width:0.5;" width="178" x="446" y="268.89"/><rect fill="#F1F1F1" height="10" style="stroke:#181818;stroke-width:0.5;" width="15" x="604" y="273.89"/><rect fill="#F1F1F1" height="2" style="stroke:#181818;stroke-width:0.5;" width="4" x="602" y="275.89"/><rect fill="#F1F1F1" height="2" style="stroke:#181818;stroke-width:0.5;" width="4" x="602" y="279.89"/><text fill="#000000" font-family="sans-serif" font-size="14" font-weight="bold" lengthAdjust="spacing" textLength="138" x="461" y="301.8851">tests/tests_views</text><text fill="#000000" font-family="sans-serif" font-size="14" lengthAdjust="spacing" textLength="4" x="461" y="318.182">&#160;</text><text fill="#000000" font-family="sans-serif" font-size="14" lengthAdjust="spacing" textLength="4" x="461" y="334.4789">&#160;</text></g><!--entity 472e78095d699cd0815b3da9752ece0a--><g id="elem_472e78095d699cd0815b3da9752ece0a"><rect fill="#F1F1F1" height="78.8906" rx="2.5" ry="2.5" style="stroke:#181818;stroke-width:0.5;" width="235" x="658.5" y="268.89"/><rect fill="#F1F1F1" height="10" style="stroke:#181818;stroke-width:0.5;" width="15" x="873.5" y="273.89"/><rect fill="#F1F1F1" height="2" style="stroke:#181818;stroke-width:0.5;" width="4" x="871.5" y="275.89"/><rect fill="#F1F1F1" height="2" style="stroke:#181818;stroke-width:0.5;" width="4" x="871.5" y="279.89"/><text fill="#000000" font-family="sans-serif" font-size="14" font-weight="bold" lengthAdjust="spacing" textLength="195" x="673.5" y="301.8851">tests/test_theframework</text><text fill="#000000" font-family="sans-serif" font-size="14" lengthAdjust="spacing" textLength="4" x="673.5" y="318.182">&#160;</text><text fill="#000000" font-family="sans-serif" font-size="14" lengthAdjust="spacing" textLength="4" x="673.5" y="334.4789">&#160;</text></g><!--entity eaf6d34ecd2668c907a8d80cc5526856--><g id="elem_eaf6d34ecd2668c907a8d80cc5526856"><rect fill="#F1F1F1" height="78.8906" rx="2.5" ry="2.5" style="stroke:#181818;stroke-width:0.5;" width="105" x="928.5" y="268.89"/><rect fill="#F1F1F1" height="10" style="stroke:#181818;stroke-width:0.5;" width="15" x="1013.5" y="273.89"/><rect fill="#F1F1F1" height="2" style="stroke:#181818;stroke-width:0.5;" width="4" x="1011.5" y="275.89"/><rect fill="#F1F1F1" height="2" style="stroke:#181818;stroke-width:0.5;" width="4" x="1011.5" y="279.89"/><text fill="#000000" font-family="sans-serif" font-size="14" font-weight="bold" lengthAdjust="spacing" textLength="45" x="943.5" y="301.8851">tests/</text><text fill="#000000" font-family="sans-serif" font-size="14" font-weight="bold" lengthAdjust="spacing" text-decoration="underline" textLength="20" x="988.5" y="301.8851">int</text><text fill="#000000" font-family="sans-serif" font-size="14" lengthAdjust="spacing" textLength="4" x="943.5" y="318.182">&#160;</text><text fill="#000000" font-family="sans-serif" font-size="14" lengthAdjust="spacing" textLength="4" x="943.5" y="334.4789">&#160;</text></g><!--entity 4c99d1fdeee5a8b53bcfe55386120e72--><g id="elem_4c99d1fdeee5a8b53bcfe55386120e72"><rect fill="#F1F1F1" height="78.8906" rx="2.5" ry="2.5" style="stroke:#181818;stroke-width:0.5;" width="86" x="1068" y="268.89"/><rect fill="#F1F1F1" height="10" style="stroke:#181818;stroke-width:0.5;" width="15" x="1134" y="273.89"/><rect fill="#F1F1F1" height="2" style="stroke:#181818;stroke-width:0.5;" width="4" x="1132" y="275.89"/><rect fill="#F1F1F1" height="2" style="stroke:#181818;stroke-width:0.5;" width="4" x="1132" y="279.89"/><text fill="#000000" font-family="sans-serif" font-size="14" font-weight="bold" lengthAdjust="spacing" textLength="46" x="1083" y="301.8851">views</text><text fill="#000000" font-family="sans-serif" font-size="14" lengthAdjust="spacing" textLength="4" x="1083" y="318.182">&#160;</text><text fill="#000000" font-family="sans-serif" font-size="14" lengthAdjust="spacing" textLength="4" x="1083" y="334.4789">&#160;</text></g><!--entity 6308441c9436aa54663d69dc11b1d0ec--><g id="elem_6308441c9436aa54663d69dc11b1d0ec"><rect fill="#F1F1F1" height="78.8906" rx="2.5" ry="2.5" style="stroke:#181818;stroke-width:0.5;" width="122" x="764" y="514.78"/><rect fill="#F1F1F1" height="10" style="stroke:#181818;stroke-width:0.5;" width="15" x="866" y="519.78"/><rect fill="#F1F1F1" height="2" style="stroke:#181818;stroke-width:0.5;" width="4" x="864" y="521.78"/><rect fill="#F1F1F1" height="2" style="stroke:#181818;stroke-width:0.5;" width="4" x="864" y="525.78"/><text fill="#000000" font-family="sans-serif" font-size="14" font-weight="bold" lengthAdjust="spacing" textLength="82" x="779" y="547.7751">serializers</text><text fill="#000000" font-family="sans-serif" font-size="14" lengthAdjust="spacing" textLength="4" x="779" y="564.072">&#160;</text><text fill="#000000" font-family="sans-serif" font-size="14" lengthAdjust="spacing" textLength="4" x="779" y="580.3689">&#160;</text></g><!--entity a72bd846149141053e8849d2d9634737--><g id="elem_a72bd846149141053e8849d2d9634737"><rect fill="#F1F1F1" height="78.8906" rx="2.5" ry="2.5" style="stroke:#181818;stroke-width:0.5;" width="78" x="496" y="514.78"/><rect fill="#F1F1F1" height="10" style="stroke:#181818;stroke-width:0.5;" width="15" x="554" y="519.78"/><rect fill="#F1F1F1" height="2" style="stroke:#181818;stroke-width:0.5;" width="4" x="552" y="521.78"/><rect fill="#F1F1F1" height="2" style="stroke:#181818;stroke-width:0.5;" width="4" x="552" y="525.78"/><text fill="#000000" font-family="sans-serif" font-size="14" font-weight="bold" lengthAdjust="spacing" textLength="38" x="511" y="547.7751">apps</text><text fill="#000000" font-family="sans-serif" font-size="14" lengthAdjust="spacing" textLength="4" x="511" y="564.072">&#160;</text><text fill="#000000" font-family="sans-serif" font-size="14" lengthAdjust="spacing" textLength="4" x="511" y="580.3689">&#160;</text></g><!--entity 95be13d0fe8c859234be81ee91ee3c80--><g id="elem_95be13d0fe8c859234be81ee91ee3c80"><rect fill="#F1F1F1" height="78.8906" rx="2.5" ry="2.5" style="stroke:#181818;stroke-width:0.5;" width="131" x="69.5" y="514.78"/><rect fill="#F1F1F1" height="10" style="stroke:#181818;stroke-width:0.5;" width="15" x="180.5" y="519.78"/><rect fill="#F1F1F1" height="2" style="stroke:#181818;stroke-width:0.5;" width="4" x="178.5" y="521.78"/><rect fill="#F1F1F1" height="2" style="stroke:#181818;stroke-width:0.5;" width="4" x="178.5" y="525.78"/><text fill="#000000" font-family="sans-serif" font-size="14" font-weight="bold" lengthAdjust="spacing" textLength="91" x="84.5" y="547.7751">admin_form</text><text fill="#000000" font-family="sans-serif" font-size="14" lengthAdjust="spacing" textLength="4" x="84.5" y="564.072">&#160;</text><text fill="#000000" font-family="sans-serif" font-size="14" lengthAdjust="spacing" textLength="4" x="84.5" y="580.3689">&#160;</text></g><!--entity e45c30b84d8d3439830340d92c2b0a6c--><g id="elem_e45c30b84d8d3439830340d92c2b0a6c"><rect fill="#F1F1F1" height="78.8906" rx="2.5" ry="2.5" style="stroke:#181818;stroke-width:0.5;" width="103" x="219.5" y="127"/><rect fill="#F1F1F1" height="10" style="stroke:#181818;stroke-width:0.5;" width="15" x="302.5" y="132"/><rect fill="#F1F1F1" height="2" style="stroke:#181818;stroke-width:0.5;" width="4" x="300.5" y="134"/><rect fill="#F1F1F1" height="2" style="stroke:#181818;stroke-width:0.5;" width="4" x="300.5" y="138"/><text fill="#000000" font-family="sans-serif" font-size="14" font-weight="bold" lengthAdjust="spacing" textLength="63" x="234.5" y="159.9951">register</text><text fill="#000000" font-family="sans-serif" font-size="14" lengthAdjust="spacing" textLength="4" x="234.5" y="176.292">&#160;</text><text fill="#000000" font-family="sans-serif" font-size="14" lengthAdjust="spacing" textLength="4" x="234.5" y="192.5889">&#160;</text></g><!--entity ebd55165f50d4993fdc3ad03036fbe9b--><g id="elem_ebd55165f50d4993fdc3ad03036fbe9b"><rect fill="#F1F1F1" height="78.8906" rx="2.5" ry="2.5" style="stroke:#181818;stroke-width:0.5;" width="164" x="76" y="268.89"/><rect fill="#F1F1F1" height="10" style="stroke:#181818;stroke-width:0.5;" width="15" x="220" y="273.89"/><rect fill="#F1F1F1" height="2" style="stroke:#181818;stroke-width:0.5;" width="4" x="218" y="275.89"/><rect fill="#F1F1F1" height="2" style="stroke:#181818;stroke-width:0.5;" width="4" x="218" y="279.89"/><text fill="#000000" font-family="sans-serif" font-size="14" font-weight="bold" lengthAdjust="spacing" textLength="124" x="91" y="301.8851">admin_apparray</text><text fill="#000000" font-family="sans-serif" font-size="14" lengthAdjust="spacing" textLength="4" x="91" y="318.182">&#160;</text><text fill="#000000" font-family="sans-serif" font-size="14" lengthAdjust="spacing" textLength="4" x="91" y="334.4789">&#160;</text></g><!--entity 04a64270416b7d95363f9efcfcd0f399--><g id="elem_04a64270416b7d95363f9efcfcd0f399"><rect fill="#F1F1F1" height="78.8906" rx="2.5" ry="2.5" style="stroke:#181818;stroke-width:0.5;" width="149" x="235.5" y="514.78"/><rect fill="#F1F1F1" height="10" style="stroke:#181818;stroke-width:0.5;" width="15" x="364.5" y="519.78"/><rect fill="#F1F1F1" height="2" style="stroke:#181818;stroke-width:0.5;" width="4" x="362.5" y="521.78"/><rect fill="#F1F1F1" height="2" style="stroke:#181818;stroke-width:0.5;" width="4" x="362.5" y="525.78"/><text fill="#000000" font-family="sans-serif" font-size="14" font-weight="bold" lengthAdjust="spacing" textLength="109" x="250.5" y="547.7751">admin_theapp</text><text fill="#000000" font-family="sans-serif" font-size="14" lengthAdjust="spacing" textLength="4" x="250.5" y="564.072">&#160;</text><text fill="#000000" font-family="sans-serif" font-size="14" lengthAdjust="spacing" textLength="4" x="250.5" y="580.3689">&#160;</text></g><!--entity f6491fcbd744b4961ece01e6b40679f3--><g id="elem_f6491fcbd744b4961ece01e6b40679f3"><rect fill="#F1F1F1" height="78.8906" rx="2.5" ry="2.5" style="stroke:#181818;stroke-width:0.5;" width="83" x="527.5" y="857.56"/><rect fill="#F1F1F1" height="10" style="stroke:#181818;stroke-width:0.5;" width="15" x="590.5" y="862.56"/><rect fill="#F1F1F1" height="2" style="stroke:#181818;stroke-width:0.5;" width="4" x="588.5" y="864.56"/><rect fill="#F1F1F1" height="2" style="stroke:#181818;stroke-width:0.5;" width="4" x="588.5" y="868.56"/><text fill="#000000" font-family="sans-serif" font-size="14" font-weight="bold" lengthAdjust="spacing" textLength="43" x="542.5" y="890.5551">fields</text><text fill="#000000" font-family="sans-serif" font-size="14" lengthAdjust="spacing" textLength="4" x="542.5" y="906.852">&#160;</text><text fill="#000000" font-family="sans-serif" font-size="14" lengthAdjust="spacing" textLength="4" x="542.5" y="923.1489">&#160;</text></g><!--entity 992f3f66e5cf35d6a5cc60ec8f4a62d0--><g id="elem_992f3f66e5cf35d6a5cc60ec8f4a62d0"><rect fill="#F1F1F1" height="78.8906" rx="2.5" ry="2.5" style="stroke:#181818;stroke-width:0.5;" width="118" x="368" y="701.67"/><rect fill="#F1F1F1" height="10" style="stroke:#181818;stroke-width:0.5;" width="15" x="466" y="706.67"/><rect fill="#F1F1F1" height="2" style="stroke:#181818;stroke-width:0.5;" width="4" x="464" y="708.67"/><rect fill="#F1F1F1" height="2" style="stroke:#181818;stroke-width:0.5;" width="4" x="464" y="712.67"/><text fill="#000000" font-family="sans-serif" font-size="14" font-weight="bold" lengthAdjust="spacing" textLength="78" x="383" y="734.6651">managers</text><text fill="#000000" font-family="sans-serif" font-size="14" lengthAdjust="spacing" textLength="4" x="383" y="750.962">&#160;</text><text fill="#000000" font-family="sans-serif" font-size="14" lengthAdjust="spacing" textLength="4" x="383" y="767.2589">&#160;</text></g><!--entity b6f72036634f9cfebd7ba24f5a02e95e--><g id="elem_b6f72036634f9cfebd7ba24f5a02e95e"><rect fill="#F1F1F1" height="78.8906" rx="2.5" ry="2.5" style="stroke:#181818;stroke-width:0.5;" width="97" x="520.5" y="701.67"/><rect fill="#F1F1F1" height="10" style="stroke:#181818;stroke-width:0.5;" width="15" x="597.5" y="706.67"/><rect fill="#F1F1F1" height="2" style="stroke:#181818;stroke-width:0.5;" width="4" x="595.5" y="708.67"/><rect fill="#F1F1F1" height="2" style="stroke:#181818;stroke-width:0.5;" width="4" x="595.5" y="712.67"/><text fill="#000000" font-family="sans-serif" font-size="14" font-weight="bold" lengthAdjust="spacing" textLength="57" x="535.5" y="734.6651">models</text><text fill="#000000" font-family="sans-serif" font-size="14" lengthAdjust="spacing" textLength="4" x="535.5" y="750.962">&#160;</text><text fill="#000000" font-family="sans-serif" font-size="14" lengthAdjust="spacing" textLength="4" x="535.5" y="767.2589">&#160;</text></g><!--entity 959a0a6d1747387db027352199c0cd52--><g id="elem_959a0a6d1747387db027352199c0cd52"><rect fill="#F1F1F1" height="78.8906" rx="2.5" ry="2.5" style="stroke:#181818;stroke-width:0.5;" width="70" x="1713" y="127"/><rect fill="#F1F1F1" height="10" style="stroke:#181818;stroke-width:0.5;" width="15" x="1763" y="132"/><rect fill="#F1F1F1" height="2" style="stroke:#181818;stroke-width:0.5;" width="4" x="1761" y="134"/><rect fill="#F1F1F1" height="2" style="stroke:#181818;stroke-width:0.5;" width="4" x="1761" y="138"/><text fill="#000000" font-family="sans-serif" font-size="14" font-weight="bold" lengthAdjust="spacing" textLength="30" x="1728" y="159.9951">urls</text><text fill="#000000" font-family="sans-serif" font-size="14" lengthAdjust="spacing" textLength="4" x="1728" y="176.292">&#160;</text><text fill="#000000" font-family="sans-serif" font-size="14" lengthAdjust="spacing" textLength="4" x="1728" y="192.5889">&#160;</text></g><!--entity e0918bf8dbb4bf26eedaaf118de43a48--><g id="elem_e0918bf8dbb4bf26eedaaf118de43a48"><rect fill="#F1F1F1" height="78.8906" rx="2.5" ry="2.5" style="stroke:#181818;stroke-width:0.5;" width="78" x="1511" y="268.89"/><rect fill="#F1F1F1" height="10" style="stroke:#181818;stroke-width:0.5;" width="15" x="1569" y="273.89"/><rect fill="#F1F1F1" height="2" style="stroke:#181818;stroke-width:0.5;" width="4" x="1567" y="275.89"/><rect fill="#F1F1F1" height="2" style="stroke:#181818;stroke-width:0.5;" width="4" x="1567" y="279.89"/><text fill="#000000" font-family="sans-serif" font-size="14" font-weight="bold" lengthAdjust="spacing" textLength="38" x="1526" y="301.8851">base</text><text fill="#000000" font-family="sans-serif" font-size="14" lengthAdjust="spacing" textLength="4" x="1526" y="318.182">&#160;</text><text fill="#000000" font-family="sans-serif" font-size="14" lengthAdjust="spacing" textLength="4" x="1526" y="334.4789">&#160;</text></g><!--entity 3c7aa64dc239df0e1c905a9a9f2b1f29--><g id="elem_3c7aa64dc239df0e1c905a9a9f2b1f29"><rect fill="#F1F1F1" height="78.8906" rx="2.5" ry="2.5" style="stroke:#181818;stroke-width:0.5;" width="69" x="1497.5" y="127"/><rect fill="#F1F1F1" height="10" style="stroke:#181818;stroke-width:0.5;" width="15" x="1546.5" y="132"/><rect fill="#F1F1F1" height="2" style="stroke:#181818;stroke-width:0.5;" width="4" x="1544.5" y="134"/><rect fill="#F1F1F1" height="2" style="stroke:#181818;stroke-width:0.5;" width="4" x="1544.5" y="138"/><text fill="#000000" font-family="sans-serif" font-size="14" font-weight="bold" lengthAdjust="spacing" textLength="29" x="1512.5" y="159.9951">dev</text><text fill="#000000" font-family="sans-serif" font-size="14" lengthAdjust="spacing" textLength="4" x="1512.5" y="176.292">&#160;</text><text fill="#000000" font-family="sans-serif" font-size="14" lengthAdjust="spacing" textLength="4" x="1512.5" y="192.5889">&#160;</text></g><!--entity 6e344300b31537f87aabff1c0b4d3384--><g id="elem_6e344300b31537f87aabff1c0b4d3384"><rect fill="#F1F1F1" height="78.8906" rx="2.5" ry="2.5" style="stroke:#181818;stroke-width:0.5;" width="77" x="1601.5" y="127"/><rect fill="#F1F1F1" height="10" style="stroke:#181818;stroke-width:0.5;" width="15" x="1658.5" y="132"/><rect fill="#F1F1F1" height="2" style="stroke:#181818;stroke-width:0.5;" width="4" x="1656.5" y="134"/><rect fill="#F1F1F1" height="2" style="stroke:#181818;stroke-width:0.5;" width="4" x="1656.5" y="138"/><text fill="#000000" font-family="sans-serif" font-size="14" font-weight="bold" lengthAdjust="spacing" textLength="37" x="1616.5" y="159.9951">prod</text><text fill="#000000" font-family="sans-serif" font-size="14" lengthAdjust="spacing" textLength="4" x="1616.5" y="176.292">&#160;</text><text fill="#000000" font-family="sans-serif" font-size="14" lengthAdjust="spacing" textLength="4" x="1616.5" y="192.5889">&#160;</text></g><!--entity 317c4ff8f7b5b8537e0296b38b9874d7--><g id="elem_317c4ff8f7b5b8537e0296b38b9874d7"><rect fill="#F1F1F1" height="78.8906" rx="2.5" ry="2.5" style="stroke:#181818;stroke-width:0.5;" width="121" x="1839.5" y="127"/><rect fill="#F1F1F1" height="10" style="stroke:#181818;stroke-width:0.5;" width="15" x="1940.5" y="132"/><rect fill="#F1F1F1" height="2" style="stroke:#181818;stroke-width:0.5;" width="4" x="1938.5" y="134"/><rect fill="#F1F1F1" height="2" style="stroke:#181818;stroke-width:0.5;" width="4" x="1938.5" y="138"/><text fill="#000000" font-family="sans-serif" font-size="14" font-weight="bold" lengthAdjust="spacing" textLength="81" x="1854.5" y="159.9951">resources</text><text fill="#000000" font-family="sans-serif" font-size="14" lengthAdjust="spacing" textLength="4" x="1854.5" y="176.292">&#160;</text><text fill="#000000" font-family="sans-serif" font-size="14" lengthAdjust="spacing" textLength="4" x="1854.5" y="192.5889">&#160;</text></g><!--entity afc6acb82532aeb1e1f2c5bec51f6de5--><g id="elem_afc6acb82532aeb1e1f2c5bec51f6de5"><rect fill="#F1F1F1" height="78.8906" rx="2.5" ry="2.5" style="stroke:#181818;stroke-width:0.5;" width="122" x="1996" y="127"/><rect fill="#F1F1F1" height="10" style="stroke:#181818;stroke-width:0.5;" width="15" x="2098" y="132"/><rect fill="#F1F1F1" height="2" style="stroke:#181818;stroke-width:0.5;" width="4" x="2096" y="134"/><rect fill="#F1F1F1" height="2" style="stroke:#181818;stroke-width:0.5;" width="4" x="2096" y="138"/><text fill="#000000" font-family="sans-serif" font-size="14" font-weight="bold" lengthAdjust="spacing" textLength="82" x="2011" y="159.9951">serializers</text><text fill="#000000" font-family="sans-serif" font-size="14" lengthAdjust="spacing" textLength="4" x="2011" y="176.292">&#160;</text><text fill="#000000" font-family="sans-serif" font-size="14" lengthAdjust="spacing" textLength="4" x="2011" y="192.5889">&#160;</text></g><!--entity 0ce787f30781d5cac3cedf66c599a27a--><g id="elem_0ce787f30781d5cac3cedf66c599a27a"><rect fill="#F1F1F1" height="78.8906" rx="2.5" ry="2.5" style="stroke:#181818;stroke-width:0.5;" width="129" x="1485.5" y="514.78"/><rect fill="#F1F1F1" height="10" style="stroke:#181818;stroke-width:0.5;" width="15" x="1594.5" y="519.78"/><rect fill="#F1F1F1" height="2" style="stroke:#181818;stroke-width:0.5;" width="4" x="1592.5" y="521.78"/><rect fill="#F1F1F1" height="2" style="stroke:#181818;stroke-width:0.5;" width="4" x="1592.5" y="525.78"/><text fill="#000000" font-family="sans-serif" font-size="14" font-weight="bold" lengthAdjust="spacing" textLength="89" x="1500.5" y="547.7751">builtins_ext</text><text fill="#000000" font-family="sans-serif" font-size="14" lengthAdjust="spacing" textLength="4" x="1500.5" y="564.072">&#160;</text><text fill="#000000" font-family="sans-serif" font-size="14" lengthAdjust="spacing" textLength="4" x="1500.5" y="580.3689">&#160;</text></g><!--entity 0aa3874c8cd08f40605713c8e67d345e--><g id="elem_0aa3874c8cd08f40605713c8e67d345e"><rect fill="#F1F1F1" height="78.8906" rx="2.5" ry="2.5" style="stroke:#181818;stroke-width:0.5;" width="73" x="1649.5" y="514.78"/><rect fill="#F1F1F1" height="10" style="stroke:#181818;stroke-width:0.5;" width="15" x="1702.5" y="519.78"/><rect fill="#F1F1F1" height="2" style="stroke:#181818;stroke-width:0.5;" width="4" x="1700.5" y="521.78"/><rect fill="#F1F1F1" height="2" style="stroke:#181818;stroke-width:0.5;" width="4" x="1700.5" y="525.78"/><text fill="#000000" font-family="sans-serif" font-size="14" font-weight="bold" lengthAdjust="spacing" textLength="33" x="1664.5" y="547.7751">utils</text><text fill="#000000" font-family="sans-serif" font-size="14" lengthAdjust="spacing" textLength="4" x="1664.5" y="564.072">&#160;</text><text fill="#000000" font-family="sans-serif" font-size="14" lengthAdjust="spacing" textLength="4" x="1664.5" y="580.3689">&#160;</text></g><!--entity 8e36a3451e9f2b0c75781ca3fd12f2c9--><g id="elem_8e36a3451e9f2b0c75781ca3fd12f2c9"><rect fill="#F1F1F1" height="39.2969" rx="2.5" ry="2.5" style="stroke:#181818;stroke-width:0.5;" width="111" x="1269.5" y="877.36"/><polygon fill="#F1F1F1" points="1363.5,882.36,1363.5,896.36,1375.5,896.36,1375.5,888.36,1369.5,882.36,1363.5,882.36" style="stroke:#181818;stroke-width:0.5;"/><line style="stroke:#181818;stroke-width:0.5;" x1="1369.5" x2="1369.5" y1="882.36" y2="888.36"/><line style="stroke:#181818;stroke-width:0.5;" x1="1375.5" x2="1369.5" y1="888.36" y2="888.36"/><text fill="#000000" font-family="sans-serif" font-size="14" lengthAdjust="spacing" textLength="81" x="1279.5" y="903.3551">./lh_monitor</text></g><!--link f4f0aa7635066259af1dbfa333c618ab to 8e36a3451e9f2b0c75781ca3fd12f2c9--><g id="link_f4f0aa7635066259af1dbfa333c618ab_8e36a3451e9f2b0c75781ca3fd12f2c9"><path codeLine="11" d="M1325,760.98 C1325,790.52 1325,847.35 1325,876.98 " fill="none" id="f4f0aa7635066259af1dbfa333c618ab-8e36a3451e9f2b0c75781ca3fd12f2c9" style="stroke:#181818;stroke-width:1.0;"/><text fill="#000000" font-family="sans-serif" font-size="13" lengthAdjust="spacing" textLength="14" x="1326" y="823.6269">rw</text></g><!--link a9160ac1370db82cff6e63bcab0b7947 to f4f0aa7635066259af1dbfa333c618ab--><g id="link_a9160ac1370db82cff6e63bcab0b7947_f4f0aa7635066259af1dbfa333c618ab"><path codeLine="12" d="M1325,206.35 C1325,318.51 1325,633.6 1325,715.12 " fill="none" id="a9160ac1370db82cff6e63bcab0b7947-to-f4f0aa7635066259af1dbfa333c618ab" style="stroke:#181818;stroke-width:1.0;stroke-dasharray:7.0,7.0;"/><polygon fill="#181818" points="1325,721.12,1329,712.12,1325,716.12,1321,712.12,1325,721.12" style="stroke:#181818;stroke-width:1.0;"/><text fill="#000000" font-family="sans-serif" font-size="13" lengthAdjust="spacing" textLength="23" x="1326" y="416.8469">use</text></g><!--link 95be13d0fe8c859234be81ee91ee3c80 to b6f72036634f9cfebd7ba24f5a02e95e--><g id="link_95be13d0fe8c859234be81ee91ee3c80_b6f72036634f9cfebd7ba24f5a02e95e"><path codeLine="156" d="M161.56,594.08 C176.01,611.88 195.52,631.29 218,641.67 C246.9,655.01 475.74,644.02 504,658.67 C522.31,668.16 533.8455,680.3753 544.7355,696.5253 " fill="none" id="95be13d0fe8c859234be81ee91ee3c80-to-b6f72036634f9cfebd7ba24f5a02e95e" style="stroke:#181818;stroke-width:1.0;"/><polygon fill="#181818" points="548.09,701.5,546.3748,691.8016,545.2946,697.3544,539.7419,696.2743,548.09,701.5" style="stroke:#181818;stroke-width:1.0;"/></g><!--link e45c30b84d8d3439830340d92c2b0a6c to 04a64270416b7d95363f9efcfcd0f399--><g id="link_e45c30b84d8d3439830340d92c2b0a6c_04a64270416b7d95363f9efcfcd0f399"><path codeLine="157" d="M274.92,206.2 C282.39,280.14 298.0067,434.6004 305.4767,508.5204 " fill="none" id="e45c30b84d8d3439830340d92c2b0a6c-to-04a64270416b7d95363f9efcfcd0f399" style="stroke:#181818;stroke-width:1.0;"/><polygon fill="#181818" points="306.08,514.49,309.1548,505.1334,305.5773,509.5153,301.1954,505.9378,306.08,514.49" style="stroke:#181818;stroke-width:1.0;"/></g><!--link e45c30b84d8d3439830340d92c2b0a6c to ebd55165f50d4993fdc3ad03036fbe9b--><g id="link_e45c30b84d8d3439830340d92c2b0a6c_ebd55165f50d4993fdc3ad03036fbe9b"><path codeLine="158" d="M239.82,206.04 C224.01,225.61 208.64,244.6423 192.85,264.1923 " fill="none" id="e45c30b84d8d3439830340d92c2b0a6c-to-ebd55165f50d4993fdc3ad03036fbe9b" style="stroke:#181818;stroke-width:1.0;"/><polygon fill="#181818" points="189.08,268.86,197.8467,264.3718,192.2216,264.9703,191.6232,259.3452,189.08,268.86" style="stroke:#181818;stroke-width:1.0;"/></g><!--link ebd55165f50d4993fdc3ad03036fbe9b to 04a64270416b7d95363f9efcfcd0f399--><g id="link_ebd55165f50d4993fdc3ad03036fbe9b_04a64270416b7d95363f9efcfcd0f399"><path codeLine="159" d="M182.25,348.25 C210.67,393.84 254.2869,463.8277 282.6569,509.3577 " fill="none" id="ebd55165f50d4993fdc3ad03036fbe9b-to-04a64270416b7d95363f9efcfcd0f399" style="stroke:#181818;stroke-width:1.0;"/><polygon fill="#181818" points="285.83,514.45,284.4653,504.6961,283.1858,510.2064,277.6755,508.9269,285.83,514.45" style="stroke:#181818;stroke-width:1.0;"/></g><!--link ebd55165f50d4993fdc3ad03036fbe9b to 95be13d0fe8c859234be81ee91ee3c80--><g id="link_ebd55165f50d4993fdc3ad03036fbe9b_95be13d0fe8c859234be81ee91ee3c80"><path codeLine="160" d="M154.33,348.25 C150.03,393.84 143.5128,462.9465 139.2228,508.4765 " fill="none" id="ebd55165f50d4993fdc3ad03036fbe9b-to-95be13d0fe8c859234be81ee91ee3c80" style="stroke:#181818;stroke-width:1.0;"/><polygon fill="#181818" points="138.66,514.45,143.4866,505.8649,139.129,509.472,135.5219,505.1145,138.66,514.45" style="stroke:#181818;stroke-width:1.0;"/></g><!--link 04a64270416b7d95363f9efcfcd0f399 to b6f72036634f9cfebd7ba24f5a02e95e--><g id="link_04a64270416b7d95363f9efcfcd0f399_b6f72036634f9cfebd7ba24f5a02e95e"><path codeLine="161" d="M335.57,594.14 C349.06,611.5 367.14,630.51 388,641.67 C410.97,653.96 481.41,645.69 504,658.67 C521.57,668.76 532.7949,680.6767 543.7049,696.4367 " fill="none" id="04a64270416b7d95363f9efcfcd0f399-to-b6f72036634f9cfebd7ba24f5a02e95e" style="stroke:#181818;stroke-width:1.0;"/><polygon fill="#181818" points="547.12,701.37,545.2862,691.6934,544.2741,697.2589,538.7085,696.2468,547.12,701.37" style="stroke:#181818;stroke-width:1.0;"/></g><!--link e1a68c45777c413457f0129c53d01a4c to 4c99d1fdeee5a8b53bcfe55386120e72--><g id="link_e1a68c45777c413457f0129c53d01a4c_4c99d1fdeee5a8b53bcfe55386120e72"><path codeLine="162" d="M1142.14,206.04 C1136.12,225.61 1130.6031,243.5749 1124.5931,263.1249 " fill="none" id="e1a68c45777c413457f0129c53d01a4c-to-4c99d1fdeee5a8b53bcfe55386120e72" style="stroke:#181818;stroke-width:1.0;"/><polygon fill="#181818" points="1122.83,268.86,1129.298,261.4327,1124.2992,264.0807,1121.6512,259.0819,1122.83,268.86" style="stroke:#181818;stroke-width:1.0;"/></g><!--link b6f72036634f9cfebd7ba24f5a02e95e to f6491fcbd744b4961ece01e6b40679f3--><g id="link_b6f72036634f9cfebd7ba24f5a02e95e_f6491fcbd744b4961ece01e6b40679f3"><path codeLine="163" d="M569,780.95 C569,804.28 569,827.86 569,851.18 " fill="none" id="b6f72036634f9cfebd7ba24f5a02e95e-to-f6491fcbd744b4961ece01e6b40679f3" style="stroke:#181818;stroke-width:1.0;"/><polygon fill="#181818" points="569,857.18,573,848.18,569,852.18,565,848.18,569,857.18" style="stroke:#181818;stroke-width:1.0;"/></g><!--link 4c99d1fdeee5a8b53bcfe55386120e72 to b6f72036634f9cfebd7ba24f5a02e95e--><g id="link_4c99d1fdeee5a8b53bcfe55386120e72_b6f72036634f9cfebd7ba24f5a02e95e"><path codeLine="164" d="M1097.4,348.07 C1071.04,417.53 1006.3,563.29 903,641.67 C816.68,707.17 693.4571,728.5826 623.7471,735.9126 " fill="none" id="4c99d1fdeee5a8b53bcfe55386120e72-to-b6f72036634f9cfebd7ba24f5a02e95e" style="stroke:#181818;stroke-width:1.0;"/><polygon fill="#181818" points="617.78,736.54,627.1489,739.5769,622.7526,736.0171,626.3124,731.6208,617.78,736.54" style="stroke:#181818;stroke-width:1.0;"/></g><!--link 4c99d1fdeee5a8b53bcfe55386120e72 to 6308441c9436aa54663d69dc11b1d0ec--><g id="link_4c99d1fdeee5a8b53bcfe55386120e72_6308441c9436aa54663d69dc11b1d0ec"><path codeLine="165" d="M1091.94,347.91 C1081.86,364.77 1068.02,383.47 1051,395.78 C1040.86,403.11 1035.21,398.21 1024,403.78 C964.8,433.19 909.792,476.8651 871.482,510.4451 " fill="none" id="4c99d1fdeee5a8b53bcfe55386120e72-to-6308441c9436aa54663d69dc11b1d0ec" style="stroke:#181818;stroke-width:1.0;"/><polygon fill="#181818" points="866.97,514.4,876.3747,511.4756,870.73,511.1042,871.1014,505.4596,866.97,514.4" style="stroke:#181818;stroke-width:1.0;"/></g><!--link 6308441c9436aa54663d69dc11b1d0ec to b6f72036634f9cfebd7ba24f5a02e95e--><g id="link_6308441c9436aa54663d69dc11b1d0ec_b6f72036634f9cfebd7ba24f5a02e95e"><path codeLine="166" d="M771.33,593.98 C726.03,626.7 666.5736,669.6364 622.6936,701.3364 " fill="none" id="6308441c9436aa54663d69dc11b1d0ec-to-b6f72036634f9cfebd7ba24f5a02e95e" style="stroke:#181818;stroke-width:1.0;"/><polygon fill="#181818" points="617.83,704.85,627.4678,702.822,621.883,701.922,622.783,696.3372,617.83,704.85" style="stroke:#181818;stroke-width:1.0;"/></g><!--link e0918bf8dbb4bf26eedaaf118de43a48 to 0ce787f30781d5cac3cedf66c599a27a--><g id="link_e0918bf8dbb4bf26eedaaf118de43a48_0ce787f30781d5cac3cedf66c599a27a"><path codeLine="167" d="M1550,348.25 C1550,393.84 1550,462.92 1550,508.45 " fill="none" id="e0918bf8dbb4bf26eedaaf118de43a48-to-0ce787f30781d5cac3cedf66c599a27a" style="stroke:#181818;stroke-width:1.0;"/><polygon fill="#181818" points="1550,514.45,1554,505.45,1550,509.45,1546,505.45,1550,514.45" style="stroke:#181818;stroke-width:1.0;"/></g><!--link 3c7aa64dc239df0e1c905a9a9f2b1f29 to e0918bf8dbb4bf26eedaaf118de43a48--><g id="link_3c7aa64dc239df0e1c905a9a9f2b1f29_e0918bf8dbb4bf26eedaaf118de43a48"><path codeLine="168" d="M1536.97,206.04 C1539.48,225.61 1541.7629,243.3592 1544.2829,262.9092 " fill="none" id="3c7aa64dc239df0e1c905a9a9f2b1f29-to-e0918bf8dbb4bf26eedaaf118de43a48" style="stroke:#181818;stroke-width:1.0;"/><polygon fill="#181818" points="1545.05,268.86,1547.8666,259.4225,1544.4108,263.901,1539.9322,260.4452,1545.05,268.86" style="stroke:#181818;stroke-width:1.0;"/></g><!--link 6e344300b31537f87aabff1c0b4d3384 to e0918bf8dbb4bf26eedaaf118de43a48--><g id="link_6e344300b31537f87aabff1c0b4d3384_e0918bf8dbb4bf26eedaaf118de43a48"><path codeLine="169" d="M1615.17,206.04 C1602.58,225.61 1590.5768,244.2644 1577.9968,263.8144 " fill="none" id="6e344300b31537f87aabff1c0b4d3384-to-e0918bf8dbb4bf26eedaaf118de43a48" style="stroke:#181818;stroke-width:1.0;"/><polygon fill="#181818" points="1574.75,268.86,1582.9839,263.456,1577.4556,264.6553,1576.2564,259.127,1574.75,268.86" style="stroke:#181818;stroke-width:1.0;"/></g><!--SRC=[ZLRBRXj93BpFLmW-6h33RlPp3_c9FIuM0hkRT0QHHi9e_CWkykzBQRoER3aOGO040sRnKSLYqsQpUzxsB_tmq0sxngkRFtbywYlVxN_ShEYmSf6ZgG3MDw54DWRA3Aqc1ma1UVLljwgxxNuty32jA9i0L0r6Q2NPAX8uOAbKeCJiukglxlQsxeP9uQTlk-4ENsvlkwxxkwDnweNgjBhvilcstkw6VjgDfmh42H35W1v2i3wJc5Q44B46awXqFy-2xpz69yP0wBpXBBP0ZJucKmcb6Iksvcu9VdNNxXPHLd-iRiRdcswn__lxTd__TR6d8zxZWM-wFTNlzA2qJD-OzlilfvwCSSpiOYaa3K4Pqa8S2eMIOZ1LEVb52HiAgJeVOwpEQ0zHmDXSFJOmvEg9aiTnStWbubSa5cMxk2BMHYAjb8quvJ_aa0o9FKLEV9WENuxVwoqDMkfu2QGDMJ82fIIZAMsMn24xCCabJ2r-16eqyTHl-G98ijTFISK7ftKbtq93CjnON0E6YufKqPyqvZWAsjJ4kL2hppbG3P1S5k92fNw0EQoVUdx-12PQZWcoLf5pRP2CBzWeHs-vCj37QfH26MdBpxln-mKOasWlZckpGVdA42cr15gUjo7vS0QsNlV3j5vVrbDpRaQQQiEJpaXr9-mzfc0iS9pv-hoLWDg-CpKxrJbv5m9gKwqQKumETfx8WSUUDlq_dr5CqPQMN30k6sV08oUTPxCj1tGHPufLmFz7lkcQshOVPbapceR18ZlmsW5QpHm2YSi1Of6ZhD_23bodVZSSviW248EtpI28yocMLD7OwY4RhfJntK9aNzYe-8LJJJvRT8MJOTR_PQnf5j6fhBNinkqbKyvNX99SIqeOvgCDEcZPLdK62lEiHdxe3nEFbz6bUM-25m_DvQoBMv4QA4QGmhcSPTTnqJZIZmiCS1ISZU1CAB5bZm4birHH4GhcV8OnsyOhma_zl4rmtervVX1p2IrMutHOdaMznH4vhvBKNGdoRduIb6EffKNTGUN67CLkM9q2Gio2f-pIywPToYHdAoWXiA-2kZVagsuUroJQal9zYlsjZvGWqUgWL5AILTjQGY7hn1DOpfxdwFETVzVnXcaSDZGyp4qtYCAIOxAvHCpH1Qk_wW0bOT2_FeWcavBRJ5GrfzWAs8ZU6brygCtRZoxwbbIFdVIl6O59gswGet7HQpFguDd7aFIes5BUovHLl4azhfMJ1GVcHdecJ6hia5mwPInqk7H9h6hNmRLgCJS1rhK6JvcEfyk8dUNH-EdI1HYTGu22ncEKf315HAz_SGqnkLFWVjorpwPB-txk4j5IYKghRMGyfEmLrrir60W5SdlN9HgzIY99Ol4bQLO6cqF1L7AAxlKqZ7pOFOwLFx4TgUhTUccz9kLYz4BfsXUktgXssV_6jyxAVkAXxSQvSX9rgaQwYUX5DHcjzthtSZBg6UeLvmPqRkPpT4Xer3wiKudgmRInH2YwJobvS3wxTtr3rTEXLmZq7T5yfOgLcox6yHffw7mxocE_cVhXiEQNwT84Y5I8hgRZvH6TBVXerByuHBMbrsLudFftkx3eVVhO-RguPzsY1PvWbcpgIfWbn-mMBVNAQgw2MPfWjsZELuvuwTbsWbaw-TsYPPvWbYozMtnQNDVKTJ1BZv5kyRLovOYN77RMpSAcTejsEwju8LctQBvNmVm7]--></g></svg>